<svg width="48" height="49" viewBox="0 0 48 49" fill="none" xmlns="http://www.w3.org/2000/svg">
<g clip-path="url(#clip0_1_123)">
<path d="M13.1077 18.5728H-0.184604C-0.592973 18.5728 -0.923065 18.8895 -0.923065 19.2813V23.5323C-0.923065 23.9241 -0.592973 24.2408 -0.184604 24.2408H0.553858V40.5363C0.553858 40.9281 0.88395 41.2448 1.29232 41.2448H11.6308C12.0392 41.2448 12.3692 40.9281 12.3692 40.5363V37.7023V27.0748V24.2408H13.1077C13.5161 24.2408 13.8462 23.9241 13.8462 23.5323V19.2813C13.8462 18.8895 13.5161 18.5728 13.1077 18.5728ZM4.98463 32.0343V30.6173H9.4154V29.2003H4.98463V27.7833H10.8923V36.9938H4.98463V33.4513H6.46155V32.0343H4.98463ZM10.8923 26.3663H4.24617C3.8378 26.3663 3.5077 26.683 3.5077 27.0748V37.7023C3.5077 38.0941 3.8378 38.4108 4.24617 38.4108H10.8923V39.8278H2.03078V24.2408H10.8923V26.3663ZM12.3692 22.8238H11.6308H1.29232H0.553858V19.9898H12.3692V22.8238Z" fill="#2B7FFF"/>
<path d="M22.8923 18.7056V13.5258C22.8923 13.1224 22.5622 12.7963 22.1539 12.7963H21.4154V9.14908H22.8923V7.69019H14.7693V9.14908H19.9385V12.7963H19.2C18.7917 12.7963 18.4616 13.1224 18.4616 13.5258V18.7056C16.7786 19.0448 15.5077 20.5175 15.5077 22.2792V23.7381V37.5976V40.5154C15.5077 40.9188 15.8378 41.2448 16.2462 41.2448H25.1077C25.5161 41.2448 25.8462 40.9188 25.8462 40.5154V37.5976V23.7381V22.2792C25.8462 20.5183 24.5753 19.0448 22.8923 18.7056ZM19.9385 14.2552H21.4154V18.6319H19.9385V14.2552ZM19.2 20.0908H22.1539C23.3753 20.0908 24.3693 21.0727 24.3693 22.2792V23.0086H16.9846V22.2792C16.9846 21.0727 17.9786 20.0908 19.2 20.0908ZM24.3693 36.8682H16.9846V35.4093H19.9385V33.9504H16.9846V24.4675H24.3693V36.8682ZM16.9846 39.7859V38.327H24.3693V39.7859H16.9846Z" fill="#2B7FFF"/>
<path d="M41.7692 17.6659H29.3077C28.9248 17.6659 28.6154 17.9853 28.6154 18.3804V40.5303C28.6154 40.9255 28.9248 41.2448 29.3077 41.2448H41.7692C42.1521 41.2448 42.4615 40.9255 42.4615 40.5303V18.3804C42.4615 17.9853 42.1521 17.6659 41.7692 17.6659ZM41.0769 39.8158H30V19.0949H41.0769V39.8158Z" fill="#2B7FFF"/>
<path d="M10.1539 32.176H8.30771V33.0829H10.1539V32.176Z" fill="#2B7FFF"/>
<path d="M23.0769 33.9898H21.2308V35.8035H23.0769V33.9898Z" fill="#2B7FFF"/>
<path d="M20.7693 32.176C22.551 32.176 24 30.7524 24 29.0019C24 27.2514 22.551 25.8278 20.7693 25.8278C18.9875 25.8278 17.5385 27.2514 17.5385 29.0019C17.5385 30.7524 18.9875 32.176 20.7693 32.176ZM20.7693 27.4149C21.6601 27.4149 22.3846 28.1267 22.3846 29.0019C22.3846 29.8772 21.6601 30.589 20.7693 30.589C19.8784 30.589 19.1539 29.8772 19.1539 29.0019C19.1539 28.1267 19.8784 27.4149 20.7693 27.4149Z" fill="#2B7FFF"/>
<path d="M33.8077 24.921H37.2693C38.6054 24.921 39.6923 23.904 39.6923 22.6537C39.6923 21.4035 38.6054 20.3865 37.2693 20.3865H33.8077C32.4716 20.3865 31.3846 21.4035 31.3846 22.6537C31.3846 23.904 32.4716 24.921 33.8077 24.921ZM38.3077 22.6537C38.3077 23.1895 37.8418 23.6254 37.2693 23.6254H36.2308V21.6821H37.2693C37.8418 21.6821 38.3077 22.118 38.3077 22.6537ZM33.8077 21.6821H34.8462V23.6254H33.8077C33.2352 23.6254 32.7693 23.1895 32.7693 22.6537C32.7693 22.118 33.2352 21.6821 33.8077 21.6821Z" fill="#2B7FFF"/>
<path d="M33.8077 32.176H37.2693C38.6054 32.176 39.6923 30.9556 39.6923 29.4554C39.6923 27.9551 38.6054 26.7347 37.2693 26.7347H33.8077C32.4716 26.7347 31.3846 27.9551 31.3846 29.4554C31.3846 30.9556 32.4716 32.176 33.8077 32.176ZM38.3077 29.4554C38.3077 30.0982 37.8418 30.6214 37.2693 30.6214H36.2308V28.2894H37.2693C37.8418 28.2894 38.3077 28.8125 38.3077 29.4554ZM33.8077 28.2894H34.8462V30.6214H33.8077C33.2352 30.6214 32.7693 30.0982 32.7693 29.4554C32.7693 28.8125 33.2352 28.2894 33.8077 28.2894Z" fill="#2B7FFF"/>
<path d="M33.8077 38.5242H37.2693C38.6054 38.5242 39.6923 37.3038 39.6923 35.8035C39.6923 34.3033 38.6054 33.0829 37.2693 33.0829H33.8077C32.4716 33.0829 31.3846 34.3033 31.3846 35.8035C31.3846 37.3038 32.4716 38.5242 33.8077 38.5242ZM38.3077 35.8035C38.3077 36.4464 37.8418 36.9695 37.2693 36.9695H36.2308V34.6376H37.2693C37.8418 34.6376 38.3077 35.1607 38.3077 35.8035ZM33.8077 34.6376H34.8462V36.9695H33.8077C33.2352 36.9695 32.7693 36.4464 32.7693 35.8035C32.7693 35.1607 33.2352 34.6376 33.8077 34.6376Z" fill="#2B7FFF"/>
</g>
<defs>
<clipPath id="clip0_1_123">
<rect width="48" height="48" fill="white" transform="translate(0 0.5)"/>
</clipPath>
</defs>
</svg>
