<svg width="48" height="48" viewBox="0 0 48 48" fill="none" xmlns="http://www.w3.org/2000/svg">
<path d="M44.5313 15.4894C44.1521 15.1457 43.6933 14.925 43.2064 14.8521C42.7196 14.7793 42.2239 14.8571 41.775 15.0769L32.3063 19.6969C32.2645 19.7219 32.2187 19.7375 32.1714 19.7428C32.1241 19.748 32.0763 19.7428 32.0309 19.7274C31.9855 19.712 31.9433 19.6868 31.9069 19.6532C31.8704 19.6196 31.8405 19.5784 31.8188 19.5319L26.2875 8.60062C26.0632 8.14876 25.7325 7.77166 25.33 7.50895C24.9274 7.24623 24.468 7.1076 24 7.1076C23.532 7.1076 23.0726 7.24623 22.6701 7.50895C22.2676 7.77166 21.9368 8.14876 21.7125 8.60062L16.1813 19.5319C16.1596 19.5784 16.1296 19.6196 16.0932 19.6532C16.0567 19.6868 16.0146 19.712 15.9691 19.7274C15.9237 19.7428 15.8759 19.748 15.8286 19.7428C15.7814 19.7375 15.7355 19.7219 15.6938 19.6969L6.22502 15.0769C5.77769 14.8537 5.28241 14.7731 4.79549 14.8442C4.30857 14.9152 3.84955 15.1352 3.47061 15.4789C3.09168 15.8227 2.80803 16.2766 2.65192 16.7888C2.49581 17.3011 2.47349 17.8513 2.58752 18.3769L7.36877 40.7137C7.44974 41.0912 7.5995 41.4467 7.80898 41.7587C8.01847 42.0707 8.28332 42.3326 8.58752 42.5288C8.98825 42.7985 9.44895 42.9413 9.91877 42.9412C10.1592 42.9388 10.3985 42.9042 10.6313 42.8381C19.3725 40.178 28.6054 40.1709 37.35 42.8175C37.6911 42.9258 38.0487 42.9569 38.401 42.9088C38.7533 42.8608 39.0931 42.7346 39.3999 42.5379C39.7066 42.3413 39.9739 42.0782 40.1855 41.7647C40.3972 41.4511 40.5488 41.0936 40.6313 40.7137L45.3938 18.3769C45.5128 17.8551 45.4949 17.3069 45.3422 16.7959C45.1896 16.2848 44.9084 15.8318 44.5313 15.4894ZM43.2188 17.7994L38.4375 40.1362C38.4118 40.2448 38.3521 40.3397 38.2688 40.4044C38.1757 40.4542 38.0702 40.4687 37.9688 40.4456C28.8274 37.668 19.1726 37.668 10.0313 40.4456C9.98199 40.461 9.93037 40.4651 9.8796 40.4577C9.82883 40.4502 9.77997 40.4315 9.73605 40.4025C9.69213 40.3735 9.65407 40.3349 9.62423 40.2891C9.59438 40.2433 9.57338 40.1913 9.56252 40.1362L4.78127 17.7994C4.77037 17.7377 4.77179 17.6742 4.78544 17.6132C4.79908 17.5522 4.82463 17.4952 4.86031 17.4461C4.89598 17.3971 4.94093 17.3571 4.99204 17.3291C5.04314 17.3011 5.09918 17.2856 5.15627 17.2837L5.30627 17.325L14.7938 21.9656C15.3921 22.262 16.07 22.2992 16.6922 22.0698C17.3143 21.8404 17.8349 21.3613 18.15 20.7281L23.6813 9.79687C23.7108 9.73172 23.7563 9.67691 23.8126 9.63861C23.8689 9.6003 23.9338 9.58001 24 9.58001C24.0662 9.58001 24.1311 9.6003 24.1874 9.63861C24.2437 9.67691 24.2892 9.73172 24.3188 9.79687L29.85 20.7281C30.1651 21.3613 30.6857 21.8404 31.3079 22.0698C31.93 22.2992 32.6079 22.262 33.2063 21.9656L42.6938 17.325C42.7581 17.2937 42.8291 17.2828 42.8987 17.2938C42.9683 17.3047 43.0338 17.337 43.0875 17.3869C43.1423 17.4352 43.1837 17.4995 43.2069 17.5724C43.2301 17.6454 43.2342 17.724 43.2188 17.7994ZM31.125 33.4744C31.093 33.7789 30.9611 34.0601 30.7539 34.2652C30.5468 34.4703 30.2787 34.5851 30 34.5881H29.8875C25.9724 34.155 22.0276 34.155 18.1125 34.5881C17.8168 34.6229 17.5206 34.5274 17.2887 34.3225C17.0568 34.1177 16.908 33.8201 16.875 33.495C16.8487 33.1676 16.9399 32.8418 17.1291 32.5874C17.3183 32.333 17.5905 32.1702 17.8875 32.1337C21.9511 31.6594 26.0489 31.6594 30.1125 32.1337C30.406 32.1702 30.6753 32.3301 30.864 32.58C31.0527 32.8299 31.1462 33.1503 31.125 33.4744Z" fill="#2B7FFF"/>
</svg>
